<svg width="101" height="25" viewBox="0 0 101 25" fill="none" xmlns="http://www.w3.org/2000/svg">
<path d="M8.28758 0V5.89928H12.5768V6.61871H8.28758V21.1511C8.28758 21.8705 8.42086 22.3861 8.68742 22.6978C8.95398 22.9856 9.35381 23.1295 9.88693 23.1295C10.3231 23.1295 10.7593 22.9736 11.1955 22.6619C11.6317 22.3261 12.0194 21.7626 12.3587 20.9712L12.9766 21.295C12.5889 22.3741 11.9952 23.2614 11.1955 23.9568C10.4201 24.6523 9.35381 25 7.99678 25C7.19711 25 6.49436 24.8921 5.88854 24.6763C5.28272 24.4844 4.77384 24.1847 4.36188 23.777C3.82876 23.2494 3.47739 22.6019 3.30776 21.8345C3.13813 21.0432 3.05332 20.024 3.05332 18.777V6.61871H0V5.89928H3.05332V1.15108C4.07109 1.15108 5.00405 1.06715 5.85219 0.899282C6.72457 0.707435 7.53636 0.407674 8.28758 0Z" fill="#2A2623"/>
<path d="M18.7038 24.7482C17.6134 24.7482 16.7046 24.5444 15.9777 24.1367C15.2507 23.729 14.7176 23.1894 14.3783 22.518C14.0391 21.8225 13.8694 21.0671 13.8694 20.2518C13.8694 19.2206 14.0996 18.3813 14.5601 17.7338C15.0447 17.0863 15.6626 16.5588 16.4139 16.1511C17.1651 15.7434 17.9526 15.4077 18.7765 15.1439C19.6247 14.8801 20.4244 14.6283 21.1756 14.3885C21.951 14.1247 22.569 13.8249 23.0294 13.4892C23.514 13.1295 23.7564 12.6739 23.7564 12.1223V9.31655C23.7564 8.69305 23.6473 8.14149 23.4292 7.66187C23.2354 7.15827 22.9203 6.77458 22.4841 6.51079C22.0722 6.247 21.5269 6.11511 20.8484 6.11511C20.3638 6.11511 19.8791 6.18705 19.3945 6.33094C18.9098 6.45084 18.51 6.66667 18.195 6.97842C18.8735 7.21823 19.3945 7.58993 19.758 8.09353C20.1457 8.57314 20.3395 9.1247 20.3395 9.7482C20.3395 10.5635 20.0488 11.211 19.4672 11.6906C18.9098 12.1703 18.2434 12.4101 17.468 12.4101C16.5956 12.4101 15.9292 12.1463 15.4688 11.6187C15.0326 11.0671 14.8145 10.4077 14.8145 9.64029C14.8145 8.94485 14.9841 8.36931 15.3234 7.91367C15.6869 7.45803 16.1836 7.02638 16.8137 6.61871C17.4922 6.23501 18.304 5.93525 19.2491 5.71943C20.2184 5.5036 21.2604 5.39568 22.3751 5.39568C23.4898 5.39568 24.4955 5.51559 25.3921 5.7554C26.2887 5.97122 27.0399 6.3789 27.6457 6.97842C28.2031 7.52998 28.5665 8.21343 28.7362 9.02878C28.9058 9.82014 28.9906 10.8273 28.9906 12.0504V21.8345C28.9906 22.4341 29.0512 22.8537 29.1724 23.0935C29.2935 23.3094 29.4995 23.4173 29.7903 23.4173C30.0084 23.4173 30.2144 23.3573 30.4082 23.2374C30.6263 23.1175 30.8565 22.9736 31.0989 22.8058L31.4623 23.4173C30.9535 23.8489 30.3598 24.1847 29.6812 24.4245C29.027 24.6403 28.2879 24.7482 27.464 24.7482C26.5673 24.7482 25.8525 24.6283 25.3194 24.3885C24.7862 24.1247 24.3985 23.777 24.1562 23.3453C23.9381 22.9137 23.8291 22.4101 23.8291 21.8345C23.2475 22.7458 22.5447 23.4652 21.7208 23.9928C20.8969 24.4964 19.8912 24.7482 18.7038 24.7482ZM21.2846 22.446C21.7693 22.446 22.2055 22.3381 22.5932 22.1223C23.0051 21.8825 23.3929 21.4988 23.7564 20.9712V13.5971C23.5383 13.9568 23.2354 14.2806 22.8476 14.5683C22.4599 14.8561 22.048 15.1559 21.6118 15.4676C21.1756 15.7554 20.7515 16.0791 20.3395 16.4389C19.9518 16.7986 19.6368 17.2422 19.3945 17.7698C19.1521 18.2974 19.031 18.9329 19.031 19.6763C19.031 20.6115 19.237 21.307 19.6489 21.7626C20.0609 22.2182 20.6061 22.446 21.2846 22.446Z" fill="#2A2623"/>
<path d="M39.88 0V5.89928H44.1692V6.61871H39.88V21.1511C39.88 21.8705 40.0133 22.3861 40.2798 22.6978C40.5464 22.9856 40.9462 23.1295 41.4793 23.1295C41.9155 23.1295 42.3517 22.9736 42.7879 22.6619C43.2241 22.3261 43.6118 21.7626 43.9511 20.9712L44.569 21.295C44.1813 22.3741 43.5876 23.2614 42.7879 23.9568C42.0125 24.6523 40.9462 25 39.5892 25C38.7895 25 38.0868 24.8921 37.481 24.6763C36.8751 24.4844 36.3662 24.1847 35.9543 23.777C35.4212 23.2494 35.0698 22.6019 34.9002 21.8345C34.7305 21.0432 34.6457 20.024 34.6457 18.777V6.61871H31.5924V5.89928H34.6457V1.15108C35.6635 1.15108 36.5965 1.06715 37.4446 0.899282C38.317 0.707435 39.1288 0.407674 39.88 0Z" fill="#2A2623"/>
<path d="M51.6295 0V5.89928H55.9187V6.61871H51.6295V21.1511C51.6295 21.8705 51.7628 22.3861 52.0294 22.6978C52.2959 22.9856 52.6958 23.1295 53.2289 23.1295C53.6651 23.1295 54.1013 22.9736 54.5374 22.6619C54.9736 22.3261 55.3614 21.7626 55.7006 20.9712L56.3185 21.295C55.9308 22.3741 55.3371 23.2614 54.5374 23.9568C53.762 24.6523 52.6958 25 51.3387 25C50.5391 25 49.8363 24.8921 49.2305 24.6763C48.6247 24.4844 48.1158 24.1847 47.7038 23.777C47.1707 23.2494 46.8193 22.6019 46.6497 21.8345C46.4801 21.0432 46.3953 20.024 46.3953 18.777V6.61871H43.3419V5.89928H46.3953V1.15108C47.413 1.15108 48.346 1.06715 49.1941 0.899282C50.0665 0.707435 50.8783 0.407674 51.6295 0Z" fill="#2A2623"/>
<path d="M74.5862 5.89928V6.61871C74.1258 6.73861 73.6896 7.02638 73.2776 7.48202C72.8657 7.91367 72.4658 8.65708 72.0781 9.71223L66.7712 24.5683C66.3834 24.5444 65.9836 24.5324 65.5716 24.5324C65.1839 24.5324 64.7962 24.5444 64.4085 24.5683L57.9383 8.66907C57.5506 7.73381 57.1629 7.17026 56.7752 6.97842C56.4117 6.76259 56.0967 6.65468 55.8301 6.65468V5.89928C56.6055 5.94724 57.4052 5.9952 58.2291 6.04317C59.0773 6.06715 59.9981 6.07914 60.9917 6.07914C61.7429 6.07914 62.5304 6.06715 63.3544 6.04317C64.2025 5.9952 64.9901 5.94724 65.717 5.89928V6.65468C65.2082 6.65468 64.7477 6.67866 64.3358 6.72662C63.948 6.77458 63.6815 6.93046 63.5361 7.19424C63.3907 7.45803 63.4149 7.92566 63.6088 8.59712L67.8616 19.7482L67.4981 20.2518L70.3697 12.3741C70.8301 11.0791 71.024 10.024 70.9513 9.20863C70.8786 8.36931 70.612 7.7458 70.1516 7.33813C69.6912 6.90648 69.0733 6.66667 68.2978 6.61871V5.89928C68.6613 5.92326 69.049 5.94724 69.461 5.97122C69.8972 5.97122 70.3091 5.98321 70.6969 6.0072C71.1088 6.0072 71.4723 6.0072 71.7873 6.0072C72.272 6.0072 72.7809 5.9952 73.314 5.97122C73.8471 5.94724 74.2712 5.92326 74.5862 5.89928Z" fill="#2A2623"/>
<path d="M80.0783 24.7482C78.9878 24.7482 78.0791 24.5444 77.3521 24.1367C76.6252 23.729 76.092 23.1894 75.7528 22.518C75.4135 21.8225 75.2439 21.0671 75.2439 20.2518C75.2439 19.2206 75.4741 18.3813 75.9345 17.7338C76.4192 17.0863 77.0371 16.5588 77.7883 16.1511C78.5395 15.7434 79.3271 15.4077 80.151 15.1439C80.9991 14.8801 81.7988 14.6283 82.55 14.3885C83.3255 14.1247 83.9434 13.8249 84.4038 13.4892C84.8885 13.1295 85.1308 12.6739 85.1308 12.1223V9.31655C85.1308 8.69305 85.0218 8.14149 84.8037 7.66187C84.6098 7.15827 84.2948 6.77458 83.8586 6.51079C83.4466 6.247 82.9014 6.11511 82.2229 6.11511C81.7383 6.11511 81.2536 6.18705 80.7689 6.33094C80.2843 6.45084 79.8844 6.66667 79.5694 6.97842C80.2479 7.21823 80.7689 7.58993 81.1324 8.09353C81.5201 8.57314 81.714 9.1247 81.714 9.7482C81.714 10.5635 81.4232 11.211 80.8416 11.6906C80.2843 12.1703 79.6179 12.4101 78.8424 12.4101C77.9701 12.4101 77.3037 12.1463 76.8432 11.6187C76.4071 11.0671 76.189 10.4077 76.189 9.64029C76.189 8.94485 76.3586 8.36931 76.6978 7.91367C77.0613 7.45803 77.5581 7.02638 78.1882 6.61871C78.8667 6.23501 79.6785 5.93525 80.6235 5.71943C81.5928 5.5036 82.6348 5.39568 83.7496 5.39568C84.8643 5.39568 85.8699 5.51559 86.7665 5.7554C87.6631 5.97122 88.4143 6.3789 89.0202 6.97842C89.5775 7.52998 89.941 8.21343 90.1106 9.02878C90.2803 9.82014 90.3651 10.8273 90.3651 12.0504V21.8345C90.3651 22.4341 90.4257 22.8537 90.5468 23.0935C90.668 23.3094 90.874 23.4173 91.1648 23.4173C91.3829 23.4173 91.5888 23.3573 91.7827 23.2374C92.0008 23.1175 92.231 22.9736 92.4733 22.8058L92.8368 23.4173C92.3279 23.8489 91.7342 24.1847 91.0557 24.4245C90.4014 24.6403 89.6623 24.7482 88.8384 24.7482C87.9418 24.7482 87.227 24.6283 86.6938 24.3885C86.1607 24.1247 85.773 23.777 85.5307 23.3453C85.3126 22.9137 85.2035 22.4101 85.2035 21.8345C84.6219 22.7458 83.9192 23.4652 83.0953 23.9928C82.2714 24.4964 81.2657 24.7482 80.0783 24.7482ZM82.6591 22.446C83.1437 22.446 83.5799 22.3381 83.9677 22.1223C84.3796 21.8825 84.7673 21.4988 85.1308 20.9712V13.5971C84.9127 13.9568 84.6098 14.2806 84.2221 14.5683C83.8344 14.8561 83.4224 15.1559 82.9862 15.4676C82.55 15.7554 82.126 16.0791 81.714 16.4389C81.3263 16.7986 81.0113 17.2422 80.7689 17.7698C80.5266 18.2974 80.4054 18.9329 80.4054 19.6763C80.4054 20.6115 80.6114 21.307 81.0234 21.7626C81.4353 22.2182 81.9806 22.446 82.6591 22.446Z" fill="#2A2623"/>
<path d="M97.9103 19.4604C98.8554 19.4604 99.6066 19.7122 100.164 20.2158C100.721 20.6954 101 21.3669 101 22.2302C101 23.0935 100.721 23.777 100.164 24.2806C99.6066 24.7602 98.8554 25 97.9103 25C96.9653 25 96.2141 24.7602 95.6567 24.2806C95.0993 23.777 94.8207 23.0935 94.8207 22.2302C94.8207 21.3669 95.0993 20.6954 95.6567 20.2158C96.2141 19.7122 96.9653 19.4604 97.9103 19.4604Z" fill="#2A2623"/>
</svg>
